<svg width="69" height="65" viewBox="0 0 69 65" fill="none" xmlns="http://www.w3.org/2000/svg">
<path d="M63.7536 18.3446C63.2353 18.1152 62.6831 17.9983 62.1261 18H62.0678C59.1263 18.0492 55.8275 21.1484 54.0965 25.8356C52.0212 31.4433 52.9765 37.1805 56.2461 38.6554C56.7639 38.8848 57.3156 39.0017 57.8721 39C60.8282 39 64.1722 35.8828 65.9178 31.1644C67.9785 25.5567 67.0087 19.8195 63.7536 18.3446Z" stroke="#2C5666" stroke-opacity="0.58" stroke-width="4" stroke-miterlimit="10"/>
<path d="M45.0798 40.0713C40.9749 32.7526 39.203 30 34.5075 30C29.812 30 28.0253 32.7701 23.9204 40.0713C20.4061 46.316 13.3038 46.8363 11.5319 52.1401C11.1724 53.1116 10.9919 54.1488 11.0003 55.1942C11.0003 59.508 14.0716 63 17.8516 63C22.5472 63 28.9408 58.9718 34.5223 58.9718C40.1038 58.9718 46.4678 63 51.1634 63C54.9434 63 58 59.5096 58 55.1942C58.0034 54.1478 57.8178 53.1106 57.4536 52.1401C55.6817 46.8173 48.5941 46.316 45.0798 40.0713Z" stroke="#2C5666" stroke-opacity="0.58" stroke-width="4" stroke-miterlimit="10"/>
<path d="M25.3324 23C25.5346 23.0002 25.7366 22.9842 25.9366 22.9523C29.4428 22.4161 31.6317 17.2998 30.8371 11.5216C30.0893 6.07432 26.9502 2 23.6676 2C23.4654 1.99983 23.2634 2.01578 23.0634 2.04773C19.5572 2.58387 17.3683 7.70023 18.1629 13.4784C18.9107 18.9098 22.0498 23 25.3324 23Z" stroke="#2C5666" stroke-opacity="0.5" stroke-width="4" stroke-miterlimit="10"/>
<path d="M50.8371 13.4784C51.6319 7.70023 49.4423 2.58387 45.9348 2.04773C45.7348 2.01578 45.5327 1.99983 45.3304 2C42.0466 2 38.9125 6.07432 38.1629 11.5216C37.3681 17.2998 39.5577 22.4161 43.0652 22.9523C43.2652 22.9842 43.4673 23.0002 43.6696 23C46.9534 23 50.0936 18.9098 50.8371 13.4784Z" stroke="#2C5666" stroke-opacity="0.58" stroke-width="4" stroke-miterlimit="10"/>
<path d="M12.7583 38.6554C16.0236 37.1789 16.9774 31.4367 14.905 25.8356C13.1608 21.1172 9.81961 18 6.86784 18C6.31132 17.9983 5.75956 18.1152 5.24173 18.3446C1.9764 19.8211 1.02261 25.5633 3.09498 31.1644C4.83922 35.8828 8.18039 39 11.1322 39C11.6887 39.0017 12.2404 38.8848 12.7583 38.6554Z" stroke="#2C5666" stroke-opacity="0.58" stroke-width="4" stroke-miterlimit="10"/>
<path d="M3.00002 61L64.9836 3.77857" stroke="#2C5666" stroke-width="6"/>
</svg>
